<svg width="40" height="40" viewBox="0 0 40 40" fill="none" xmlns="http://www.w3.org/2000/svg">
<g clip-path="url(#clip0_21_88)">
<path d="M33.3333 14.475V6.66666H25.5249L19.9999 1.14166L14.4749 6.66666H6.6666V14.475L1.1416 20L6.6666 25.525V33.3333H14.4749L19.9999 38.8583L25.5249 33.3333H33.3333V25.525L38.8583 20L33.3333 14.475ZM19.9999 30C14.4749 30 9.99994 25.525 9.99994 20C9.99994 14.475 14.4749 10 19.9999 10C25.5249 10 29.9999 14.475 29.9999 20C29.9999 25.525 25.5249 30 19.9999 30ZM19.9999 13.3333C16.3166 13.3333 13.3333 16.3167 13.3333 20C13.3333 23.6833 16.3166 26.6667 19.9999 26.6667C23.6833 26.6667 26.6666 23.6833 26.6666 20C26.6666 16.3167 23.6833 13.3333 19.9999 13.3333Z" fill="white"/>
</g>
<defs>
<clipPath id="clip0_21_88">
<rect width="40" height="40" fill="white"/>
</clipPath>
</defs>
</svg>
